<svg xmlns="http://www.w3.org/2000/svg" xmlns:xlink="http://www.w3.org/1999/xlink" width="500" zoomAndPan="magnify" viewBox="0 0 375 374.999991" height="500" preserveAspectRatio="xMidYMid meet" version="1.0"><defs><clipPath id="88678aefa3"><path d="M 60 75.1875 L 315 75.1875 L 315 299.4375 L 60 299.4375 Z M 60 75.1875 " clip-rule="nonzero"/></clipPath></defs><rect x="-37.5" width="450" fill="#ffffff" y="-37.499999" height="449.999989" fill-opacity="1"/><rect x="-37.5" width="450" fill="#ffbd59" y="-37.499999" height="449.999989" fill-opacity="1"/><path fill="#000000" d="M 162.949219 192.257812 C 162.949219 192.851562 162.890625 193.441406 162.773438 194.023438 C 162.65625 194.605469 162.484375 195.171875 162.257812 195.722656 C 162.027344 196.273438 161.75 196.792969 161.417969 197.289062 C 161.085938 197.785156 160.710938 198.242188 160.289062 198.660156 C 159.867188 199.082031 159.410156 199.457031 158.914062 199.789062 C 158.417969 200.117188 157.894531 200.398438 157.34375 200.625 C 156.792969 200.851562 156.222656 201.023438 155.640625 201.140625 C 155.054688 201.257812 154.464844 201.316406 153.867188 201.316406 C 153.273438 201.316406 152.683594 201.257812 152.097656 201.140625 C 151.511719 201.023438 150.945312 200.851562 150.394531 200.625 C 149.84375 200.398438 149.320312 200.117188 148.824219 199.789062 C 148.328125 199.457031 147.871094 199.082031 147.449219 198.660156 C 147.027344 198.242188 146.652344 197.785156 146.320312 197.289062 C 145.988281 196.792969 145.707031 196.273438 145.480469 195.722656 C 145.253906 195.171875 145.082031 194.605469 144.964844 194.023438 C 144.847656 193.441406 144.789062 192.851562 144.789062 192.257812 C 144.789062 191.660156 144.847656 191.074219 144.964844 190.488281 C 145.082031 189.90625 145.253906 189.339844 145.480469 188.789062 C 145.707031 188.242188 145.988281 187.71875 146.320312 187.222656 C 146.652344 186.730469 147.027344 186.273438 147.449219 185.851562 C 147.871094 185.429688 148.328125 185.054688 148.824219 184.726562 C 149.320312 184.394531 149.84375 184.117188 150.394531 183.886719 C 150.945312 183.660156 151.511719 183.488281 152.097656 183.375 C 152.683594 183.257812 153.273438 183.199219 153.867188 183.199219 C 154.464844 183.199219 155.054688 183.257812 155.640625 183.375 C 156.222656 183.488281 156.792969 183.660156 157.34375 183.886719 C 157.894531 184.117188 158.417969 184.394531 158.914062 184.726562 C 159.410156 185.054688 159.867188 185.429688 160.289062 185.851562 C 160.710938 186.273438 161.085938 186.730469 161.417969 187.222656 C 161.75 187.71875 162.027344 188.242188 162.257812 188.789062 C 162.484375 189.339844 162.65625 189.90625 162.773438 190.488281 C 162.890625 191.074219 162.949219 191.660156 162.949219 192.257812 Z M 162.949219 192.257812 " fill-opacity="1" fill-rule="nonzero"/><path fill="#000000" d="M 227.695312 192.257812 C 227.695312 192.851562 227.636719 193.441406 227.519531 194.023438 C 227.402344 194.605469 227.230469 195.171875 227.003906 195.722656 C 226.773438 196.273438 226.496094 196.792969 226.164062 197.289062 C 225.832031 197.785156 225.457031 198.242188 225.035156 198.660156 C 224.613281 199.082031 224.152344 199.457031 223.660156 199.789062 C 223.164062 200.117188 222.640625 200.398438 222.089844 200.625 C 221.539062 200.851562 220.96875 201.023438 220.386719 201.140625 C 219.800781 201.257812 219.210938 201.316406 218.613281 201.316406 C 218.019531 201.316406 217.429688 201.257812 216.84375 201.140625 C 216.257812 201.023438 215.691406 200.851562 215.140625 200.625 C 214.589844 200.398438 214.066406 200.117188 213.570312 199.789062 C 213.074219 199.457031 212.617188 199.082031 212.195312 198.660156 C 211.773438 198.242188 211.398438 197.785156 211.066406 197.289062 C 210.734375 196.792969 210.453125 196.273438 210.226562 195.722656 C 210 195.171875 209.828125 194.605469 209.710938 194.023438 C 209.59375 193.441406 209.535156 192.851562 209.535156 192.257812 C 209.535156 191.660156 209.59375 191.074219 209.710938 190.488281 C 209.828125 189.90625 210 189.339844 210.226562 188.789062 C 210.453125 188.242188 210.734375 187.71875 211.066406 187.222656 C 211.398438 186.730469 211.773438 186.273438 212.195312 185.851562 C 212.617188 185.429688 213.074219 185.054688 213.570312 184.726562 C 214.066406 184.394531 214.589844 184.117188 215.140625 183.886719 C 215.691406 183.660156 216.257812 183.488281 216.84375 183.375 C 217.429688 183.257812 218.019531 183.199219 218.613281 183.199219 C 219.210938 183.199219 219.800781 183.257812 220.386719 183.375 C 220.96875 183.488281 221.539062 183.660156 222.089844 183.886719 C 222.640625 184.117188 223.164062 184.394531 223.660156 184.726562 C 224.152344 185.054688 224.613281 185.429688 225.035156 185.851562 C 225.457031 186.273438 225.832031 186.730469 226.164062 187.222656 C 226.496094 187.71875 226.773438 188.242188 227.003906 188.789062 C 227.230469 189.339844 227.402344 189.90625 227.519531 190.488281 C 227.636719 191.074219 227.695312 191.660156 227.695312 192.257812 Z M 227.695312 192.257812 " fill-opacity="1" fill-rule="nonzero"/><path fill="#000000" d="M 257.050781 185.878906 C 256.746094 183.964844 254.933594 182.648438 253.019531 182.960938 C 251.097656 183.265625 249.789062 185.066406 250.09375 186.984375 C 250.386719 188.816406 250.535156 190.699219 250.535156 192.582031 C 250.535156 208.5625 239.808594 222.402344 224.628906 226.589844 C 219 210.839844 203.941406 199.515625 186.246094 199.515625 C 168.542969 199.515625 153.480469 210.847656 147.855469 226.609375 C 144.71875 225.738281 141.726562 224.445312 138.925781 222.738281 C 137.261719 221.726562 135.09375 222.246094 134.082031 223.902344 C 133.066406 225.558594 133.585938 227.722656 135.246094 228.734375 C 138.640625 230.804688 142.277344 232.363281 146.078125 233.40625 C 145.703125 235.621094 145.460938 237.878906 145.460938 240.199219 C 145.460938 262.632812 163.757812 280.886719 186.246094 280.886719 C 208.730469 280.886719 227.023438 262.632812 227.023438 240.199219 C 227.023438 237.871094 226.78125 235.605469 226.40625 233.382812 C 227.613281 233.054688 228.796875 232.675781 229.953125 232.246094 L 229.953125 234.375 C 229.953125 236.316406 231.527344 237.890625 233.476562 237.890625 C 235.421875 237.890625 236.996094 236.316406 236.996094 234.375 L 236.996094 228.867188 C 249.457031 221.398438 257.578125 207.800781 257.578125 192.582031 C 257.578125 190.332031 257.398438 188.078125 257.050781 185.878906 Z M 186.246094 273.855469 C 174.742188 273.855469 164.574219 268.074219 158.480469 259.277344 C 161.773438 259.417969 165.023438 259.527344 168.203125 259.527344 C 176.125 259.527344 183.769531 258.953125 191.472656 257.140625 C 196.613281 255.933594 201.707031 254.246094 206.601562 252.117188 C 208.027344 251.5 208.683594 249.84375 208.058594 248.417969 C 207.4375 246.996094 205.785156 246.339844 204.351562 246.960938 C 199.765625 248.953125 194.996094 250.539062 190.179688 251.671875 C 178.996094 254.296875 167.667969 254.140625 155.265625 253.503906 C 153.5 249.421875 152.507812 244.925781 152.507812 240.199219 C 152.507812 221.644531 167.640625 206.546875 186.246094 206.546875 C 204.375 206.546875 219.171875 220.898438 219.90625 238.8125 C 219.507812 239.039062 219.132812 239.25 218.722656 239.484375 C 216.484375 240.765625 214.109375 242.132812 211.53125 243.492188 C 210.15625 244.21875 209.628906 245.921875 210.359375 247.292969 C 210.867188 248.246094 211.84375 248.789062 212.851562 248.789062 C 213.296875 248.789062 213.746094 248.683594 214.167969 248.464844 C 216.058594 247.464844 217.8125 246.476562 219.515625 245.507812 C 216.957031 261.546875 203.035156 273.855469 186.246094 273.855469 Z M 186.246094 273.855469 " fill-opacity="1" fill-rule="nonzero"/><path fill="#000000" d="M 121.949219 192.582031 C 121.949219 173.105469 137.828125 157.261719 157.351562 157.261719 C 167.324219 157.261719 176.910156 161.527344 183.640625 168.96875 C 184.3125 169.707031 185.261719 170.125 186.257812 170.125 C 187.257812 170.125 188.210938 169.703125 188.875 168.960938 C 195.574219 161.527344 205.144531 157.261719 215.132812 157.261719 C 228.996094 157.261719 241.660156 165.40625 247.390625 178.011719 C 248.199219 179.777344 250.277344 180.5625 252.054688 179.761719 C 253.828125 178.957031 254.613281 176.875 253.808594 175.109375 C 246.9375 159.996094 231.753906 150.234375 215.132812 150.234375 C 204.394531 150.234375 194.066406 154.339844 186.253906 161.605469 C 182.792969 158.398438 178.828125 155.847656 174.574219 153.953125 L 174.574219 149.351562 C 174.574219 147.410156 173 145.835938 171.054688 145.835938 C 169.105469 145.835938 167.53125 147.410156 167.53125 149.351562 L 167.53125 151.527344 C 165.789062 151.09375 164.023438 150.757812 162.230469 150.550781 L 162.230469 144.292969 C 162.230469 142.351562 160.652344 140.777344 158.707031 140.777344 C 156.761719 140.777344 155.183594 142.351562 155.183594 144.292969 L 155.183594 150.339844 C 132.789062 151.476562 114.902344 169.960938 114.902344 192.582031 C 114.902344 203.96875 119.375 214.652344 127.492188 222.667969 C 128.179688 223.34375 129.078125 223.683594 129.96875 223.683594 C 130.878906 223.683594 131.789062 223.335938 132.476562 222.644531 C 133.84375 221.261719 133.832031 219.039062 132.449219 217.671875 C 125.675781 210.988281 121.949219 202.078125 121.949219 192.582031 Z M 121.949219 192.582031 " fill-opacity="1" fill-rule="nonzero"/><g clip-path="url(#88678aefa3)"><path fill="#000000" d="M 280.796875 170.433594 C 280.9375 164.828125 280.464844 159.519531 279.339844 154.566406 C 279.339844 154.5625 279.339844 154.558594 279.339844 154.554688 C 275.304688 132.554688 254.074219 102.300781 253.175781 101.019531 C 252.3125 99.804688 250.851562 99.117188 249.386719 99.246094 C 247.902344 99.363281 246.585938 100.25 245.925781 101.589844 L 240.402344 112.789062 C 237.84375 106.46875 233.871094 98.15625 228.523438 91.328125 C 220.09375 80.558594 218.300781 78.179688 217.925781 77.664062 C 217.765625 77.40625 217.574219 77.160156 217.355469 76.933594 C 215.792969 75.324219 213.230469 75.214844 211.539062 76.6875 C 210.484375 77.605469 210.066406 78.550781 210.042969 79.492188 C 209.144531 82.695312 207.039062 89.652344 205.355469 92.9375 C 203.832031 95.910156 198.835938 101.011719 194.601562 104.910156 C 191.445312 100.648438 186.671875 94.386719 184.546875 92.476562 C 179.742188 88.152344 168.628906 79.484375 168.160156 79.117188 C 167.03125 78.234375 165.53125 77.984375 164.179688 78.453125 C 162.828125 78.917969 161.800781 80.035156 161.457031 81.417969 C 161.421875 81.542969 158.359375 93.734375 155.136719 100.800781 C 153.789062 103.75 146.90625 111.4375 141.328125 117.265625 L 129.613281 103.292969 C 128.753906 102.273438 127.460938 101.734375 126.128906 101.789062 C 124.792969 101.867188 123.570312 102.570312 122.835938 103.683594 C 117.851562 111.253906 112.96875 119.128906 108.339844 127.085938 C 107.074219 129.253906 105.726562 131.363281 104.386719 133.460938 C 100.34375 139.785156 96.164062 146.324219 94.308594 154.363281 C 93.160156 159.347656 92.675781 164.691406 92.804688 170.335938 C 80.046875 169.925781 69.054688 174.90625 63.914062 183.742188 C 58.578125 192.90625 61.339844 203.363281 62.988281 209.605469 C 63.933594 213.195312 66.808594 224.117188 76.171875 232.183594 C 83.34375 238.359375 92.871094 241.558594 103.078125 241.558594 C 108.070312 241.558594 113.222656 240.75 118.34375 239.195312 C 120.28125 241.832031 122.257812 244.410156 124.214844 246.9375 C 128.511719 252.484375 132.570312 257.722656 135.988281 263.457031 C 137.34375 265.730469 138.609375 268.199219 139.949219 270.816406 C 144.113281 278.941406 148.835938 288.152344 157.691406 293.152344 C 164.699219 297.109375 174.28125 299.207031 186.175781 299.386719 C 186.199219 299.386719 186.21875 299.386719 186.242188 299.386719 C 186.65625 299.386719 187.046875 299.308594 187.425781 299.199219 L 187.429688 299.386719 C 199.328125 299.207031 208.910156 297.109375 215.914062 293.152344 C 224.769531 288.152344 229.492188 278.945312 233.65625 270.820312 C 235 268.203125 236.265625 265.734375 237.621094 263.457031 C 241.039062 257.71875 245.101562 252.480469 249.394531 246.933594 C 251.453125 244.273438 253.535156 241.5625 255.566406 238.785156 C 261.105469 240.609375 266.699219 241.558594 272.105469 241.558594 C 282.3125 241.558594 291.84375 238.359375 299.011719 232.183594 C 308.371094 224.117188 311.25 213.195312 312.191406 209.609375 C 313.84375 203.363281 316.605469 192.910156 311.269531 183.742188 C 305.917969 174.546875 294.214844 169.542969 280.796875 170.433594 Z M 81.699219 225.800781 C 74.320312 219.441406 71.945312 210.425781 71.164062 207.460938 C 69.679688 201.832031 67.644531 194.128906 71.226562 187.976562 C 74.851562 181.753906 83.53125 178.304688 93.46875 178.84375 C 93.738281 180.953125 94.0625 183.089844 94.496094 185.273438 C 94.5625 185.597656 94.644531 185.925781 94.714844 186.253906 C 88.636719 186.226562 83.628906 188.398438 80.582031 192.566406 C 74.246094 201.230469 78.773438 211.917969 84.578125 218.4375 C 85.273438 219.222656 86.238281 219.621094 87.210938 219.621094 C 88.042969 219.621094 88.878906 219.328125 89.550781 218.734375 C 91.003906 217.449219 91.136719 215.226562 89.84375 213.773438 C 85.78125 209.207031 82.40625 201.996094 86.273438 196.703125 C 88.695312 193.394531 93.007812 193.023438 96.417969 193.355469 C 98.753906 202.023438 102.078125 210.730469 106.371094 219.386719 C 102.453125 219.886719 98.859375 219.5 95.8125 218.214844 C 94.003906 217.453125 91.945312 218.292969 91.191406 220.078125 C 90.433594 221.863281 91.269531 223.925781 93.058594 224.683594 C 96.117188 225.976562 99.5 226.628906 103.128906 226.628906 C 105.269531 226.628906 107.5 226.382812 109.796875 225.925781 C 110.175781 226.613281 110.535156 227.300781 110.925781 227.988281 C 111.683594 229.308594 112.492188 230.585938 113.304688 231.859375 C 101.347656 234.761719 89.597656 232.609375 81.699219 225.800781 Z M 242.710938 241.773438 C 238.445312 247.277344 234.035156 252.96875 230.355469 259.144531 C 228.859375 261.648438 227.472656 264.359375 226.128906 266.980469 C 222.332031 274.390625 218.402344 282.058594 211.75 285.8125 C 206.070312 289.019531 197.617188 290.796875 187.304688 290.953125 L 187.304688 291.101562 C 186.984375 291.015625 186.652344 290.957031 186.304688 290.953125 C 175.988281 290.796875 167.535156 289.019531 161.855469 285.808594 C 155.207031 282.058594 151.277344 274.386719 147.476562 266.972656 C 146.136719 264.355469 144.75 261.648438 143.253906 259.144531 C 139.570312 252.96875 135.164062 247.28125 130.90625 241.78125 C 126.464844 236.050781 121.875 230.125 118.269531 223.8125 C 110.632812 210.449219 105.425781 196.933594 102.789062 183.636719 C 100.777344 173.492188 100.695312 164.28125 102.550781 156.257812 C 104.078125 149.632812 107.691406 143.980469 111.515625 137.996094 C 112.917969 135.796875 114.328125 133.59375 115.648438 131.324219 C 119.238281 125.15625 122.976562 119.042969 126.800781 113.085938 L 137.851562 126.265625 C 138.613281 127.175781 139.726562 127.722656 140.914062 127.769531 C 142.097656 127.8125 143.257812 127.371094 144.09375 126.527344 C 146.746094 123.863281 160.105469 110.257812 162.828125 104.296875 C 164.816406 99.941406 166.675781 94.101562 167.953125 89.707031 C 171.582031 92.597656 176.296875 96.410156 178.886719 98.738281 C 180.585938 100.269531 186.707031 108.355469 190.503906 113.609375 C 191.195312 114.5625 192.253906 115.1875 193.421875 115.328125 C 194.605469 115.46875 195.769531 115.117188 196.667969 114.355469 C 197.972656 113.25 209.507812 103.367188 212.878906 96.777344 C 213.941406 94.707031 215.035156 91.765625 215.96875 88.976562 C 217.453125 90.882812 219.375 93.34375 221.863281 96.519531 C 230.742188 107.859375 235.65625 124.621094 235.703125 124.789062 C 236.1875 126.464844 237.65625 127.667969 239.394531 127.820312 C 241.089844 127.96875 242.785156 127.050781 243.558594 125.484375 L 250.269531 111.886719 C 256.5625 121.660156 268.328125 141.382812 271.023438 156.070312 C 271.035156 156.136719 271.0625 156.191406 271.074219 156.253906 L 271.0625 156.257812 C 272.910156 164.277344 272.828125 173.488281 270.820312 183.636719 C 268.183594 196.929688 262.976562 210.449219 255.339844 223.808594 C 251.734375 230.121094 247.144531 236.042969 242.710938 241.773438 Z M 304.015625 207.460938 C 303.238281 210.425781 300.863281 219.441406 293.484375 225.800781 C 285.285156 232.863281 272.957031 234.878906 260.539062 231.476562 C 261.265625 230.324219 262.003906 229.179688 262.683594 227.988281 C 263.132812 227.203125 263.542969 226.414062 263.976562 225.625 C 266.726562 226.285156 269.40625 226.636719 271.980469 226.636719 C 273.867188 226.636719 275.699219 226.457031 277.476562 226.105469 C 279.382812 225.722656 280.621094 223.871094 280.238281 221.96875 C 279.855469 220.0625 278.015625 218.832031 276.09375 219.210938 C 274.136719 219.601562 271.164062 219.835938 267.355469 219.15625 C 271.554688 210.644531 274.824219 202.089844 277.132812 193.566406 C 280.660156 192.972656 286.078125 192.832031 288.910156 196.703125 C 293.5625 203.070312 287.757812 211.539062 284.039062 215.125 C 283.59375 215.558594 283.132812 215.949219 282.667969 216.304688 C 281.121094 217.484375 280.828125 219.6875 282.007812 221.230469 C 282.699219 222.136719 283.75 222.613281 284.808594 222.613281 C 285.554688 222.613281 286.304688 222.378906 286.945312 221.890625 C 287.625 221.371094 288.289062 220.804688 288.9375 220.179688 C 296.238281 213.132812 301.128906 201.488281 294.601562 192.5625 C 291.292969 188.035156 285.671875 185.875 278.878906 186.324219 C 278.953125 185.972656 279.042969 185.621094 279.113281 185.269531 C 279.535156 183.140625 279.855469 181.054688 280.121094 178.992188 C 290.714844 177.972656 300.144531 181.425781 303.957031 187.976562 C 307.539062 194.128906 305.507812 201.832031 304.015625 207.460938 Z M 304.015625 207.460938 " fill-opacity="1" fill-rule="nonzero"/></g><path fill="#000000" d="M 181.304688 222.863281 C 181.304688 223.226562 181.273438 223.585938 181.207031 223.941406 C 181.140625 224.292969 181.042969 224.636719 180.914062 224.972656 C 180.785156 225.308594 180.628906 225.625 180.441406 225.925781 C 180.253906 226.226562 180.042969 226.503906 179.804688 226.757812 C 179.566406 227.015625 179.304688 227.242188 179.027344 227.445312 C 178.746094 227.644531 178.449219 227.816406 178.140625 227.953125 C 177.828125 228.089844 177.507812 228.195312 177.179688 228.265625 C 176.847656 228.335938 176.515625 228.371094 176.179688 228.371094 C 175.839844 228.371094 175.507812 228.335938 175.179688 228.265625 C 174.847656 228.195312 174.527344 228.089844 174.214844 227.953125 C 173.90625 227.816406 173.609375 227.644531 173.328125 227.445312 C 173.050781 227.242188 172.789062 227.015625 172.554688 226.757812 C 172.316406 226.503906 172.101562 226.226562 171.914062 225.925781 C 171.726562 225.625 171.570312 225.308594 171.441406 224.972656 C 171.3125 224.636719 171.214844 224.292969 171.148438 223.941406 C 171.082031 223.585938 171.050781 223.226562 171.050781 222.863281 C 171.050781 222.503906 171.082031 222.144531 171.148438 221.789062 C 171.214844 221.4375 171.3125 221.089844 171.441406 220.757812 C 171.570312 220.421875 171.726562 220.105469 171.914062 219.804688 C 172.101562 219.503906 172.316406 219.226562 172.554688 218.972656 C 172.789062 218.714844 173.050781 218.488281 173.328125 218.285156 C 173.609375 218.085938 173.90625 217.914062 174.214844 217.777344 C 174.527344 217.640625 174.847656 217.535156 175.179688 217.464844 C 175.507812 217.394531 175.839844 217.359375 176.179688 217.359375 C 176.515625 217.359375 176.847656 217.394531 177.179688 217.464844 C 177.507812 217.535156 177.828125 217.640625 178.140625 217.777344 C 178.449219 217.914062 178.746094 218.085938 179.027344 218.285156 C 179.304688 218.488281 179.566406 218.714844 179.804688 218.972656 C 180.042969 219.226562 180.253906 219.503906 180.441406 219.804688 C 180.628906 220.105469 180.785156 220.421875 180.914062 220.757812 C 181.042969 221.089844 181.140625 221.4375 181.207031 221.789062 C 181.273438 222.144531 181.304688 222.503906 181.304688 222.863281 Z M 181.304688 222.863281 " fill-opacity="1" fill-rule="nonzero"/><path fill="#000000" d="M 201.4375 222.863281 C 201.4375 223.226562 201.40625 223.585938 201.339844 223.941406 C 201.273438 224.292969 201.175781 224.636719 201.046875 224.972656 C 200.917969 225.308594 200.761719 225.625 200.574219 225.925781 C 200.386719 226.226562 200.175781 226.503906 199.9375 226.757812 C 199.699219 227.015625 199.441406 227.242188 199.160156 227.445312 C 198.878906 227.644531 198.585938 227.816406 198.273438 227.953125 C 197.964844 228.089844 197.644531 228.195312 197.3125 228.265625 C 196.984375 228.335938 196.648438 228.371094 196.3125 228.371094 C 195.976562 228.371094 195.644531 228.335938 195.3125 228.265625 C 194.980469 228.195312 194.660156 228.089844 194.351562 227.953125 C 194.039062 227.816406 193.746094 227.644531 193.464844 227.445312 C 193.183594 227.242188 192.925781 227.015625 192.6875 226.757812 C 192.449219 226.503906 192.238281 226.226562 192.050781 225.925781 C 191.863281 225.625 191.707031 225.308594 191.578125 224.972656 C 191.449219 224.636719 191.351562 224.292969 191.285156 223.941406 C 191.21875 223.585938 191.1875 223.226562 191.1875 222.863281 C 191.1875 222.503906 191.21875 222.144531 191.285156 221.789062 C 191.351562 221.4375 191.449219 221.089844 191.578125 220.757812 C 191.707031 220.421875 191.863281 220.105469 192.050781 219.804688 C 192.238281 219.503906 192.449219 219.226562 192.6875 218.972656 C 192.925781 218.714844 193.183594 218.488281 193.464844 218.285156 C 193.746094 218.085938 194.039062 217.914062 194.351562 217.777344 C 194.660156 217.640625 194.980469 217.535156 195.3125 217.464844 C 195.644531 217.394531 195.976562 217.359375 196.3125 217.359375 C 196.648438 217.359375 196.984375 217.394531 197.3125 217.464844 C 197.644531 217.535156 197.964844 217.640625 198.273438 217.777344 C 198.585938 217.914062 198.878906 218.085938 199.160156 218.285156 C 199.441406 218.488281 199.699219 218.714844 199.9375 218.972656 C 200.175781 219.226562 200.386719 219.503906 200.574219 219.804688 C 200.761719 220.105469 200.917969 220.421875 201.046875 220.757812 C 201.175781 221.089844 201.273438 221.4375 201.339844 221.789062 C 201.40625 222.144531 201.4375 222.503906 201.4375 222.863281 Z M 201.4375 222.863281 " fill-opacity="1" fill-rule="nonzero"/><path fill="#000000" d="M 207.242188 137.949219 C 207.875 138.582031 208.707031 138.898438 209.535156 138.898438 C 210.363281 138.898438 211.191406 138.582031 211.828125 137.949219 L 213.90625 135.875 L 215.988281 137.949219 C 216.621094 138.582031 217.453125 138.898438 218.28125 138.898438 C 219.109375 138.898438 219.9375 138.582031 220.574219 137.949219 C 221.839844 136.6875 221.839844 134.640625 220.574219 133.378906 L 218.492188 131.300781 L 220.574219 129.226562 C 221.839844 127.964844 221.839844 125.914062 220.574219 124.652344 C 219.304688 123.390625 217.253906 123.390625 215.988281 124.652344 L 213.90625 126.730469 L 211.828125 124.652344 C 210.558594 123.390625 208.507812 123.390625 207.242188 124.652344 C 205.976562 125.914062 205.976562 127.964844 207.242188 129.226562 L 209.324219 131.300781 L 207.242188 133.378906 C 205.976562 134.640625 205.976562 136.6875 207.242188 137.949219 Z M 207.242188 137.949219 " fill-opacity="1" fill-rule="nonzero"/></svg>